<?xml version="1.0" encoding="UTF-8"?>
<svg version="1.1" xmlns="http://www.w3.org/2000/svg" width="2502" height="2501">
<path d="M0 0 C0 95.7 0 191.4 0 290 C-12.3735692 283.25078044 -12.3735692 283.25078044 -17.3046875 280.1953125 C-18.38363281 279.52886719 -19.46257812 278.86242187 -20.57421875 278.17578125 C-21.66347656 277.49902344 -22.75273438 276.82226562 -23.875 276.125 C-24.95652344 275.45597656 -26.03804687 274.78695313 -27.15234375 274.09765625 C-29.20640005 272.82703025 -31.2597372 271.55524015 -33.31201172 270.28173828 C-38.86826668 266.84411357 -44.43552025 263.42429523 -50 260 C-50 345.14 -50 430.28 -50 518 C-101.48 518 -152.96 518 -206 518 C-206 718.31 -206 918.62 -206 1125 C-262.1 1125 -318.2 1125 -376 1125 C-376.48313876 1022.01184989 -376.48313876 1022.01184989 -376.61560059 990.14756775 C-376.62033659 989.01114864 -376.6250726 987.87472953 -376.62995213 986.70387348 C-376.78894232 948.45053167 -376.91496355 910.19715536 -377.01623535 871.94361877 C-377.01954872 870.69525243 -377.02286209 869.44688609 -377.02627587 868.16069046 C-377.09810502 841.03057475 -377.16458947 813.90044841 -377.22556791 786.7703062 C-377.2540001 774.13418259 -377.28341771 761.49806134 -377.3135786 748.86194176 C-377.31836057 746.85618691 -377.32311541 744.850432 -377.32786912 742.84467708 C-377.40129156 711.96610602 -377.49506996 681.08776207 -377.64794922 650.20947266 C-377.65287757 649.21393277 -377.65287757 649.21393277 -377.65790549 648.19828097 C-377.7110011 637.49787161 -377.76580822 626.79747101 -377.82084257 616.09707147 C-378.05105416 571.3293598 -378.20451479 526.56210085 -378.25395976 481.7938038 C-378.26087552 475.56540104 -378.2686908 469.33699969 -378.27705383 463.10859871 C-378.27867199 461.88275558 -378.28029014 460.65691245 -378.28195732 459.39392255 C-378.31032335 439.65777852 -378.42164613 419.92293161 -378.56396881 400.18731665 C-378.70527043 380.34791615 -378.75923125 360.50980195 -378.72403306 340.66991585 C-378.70577161 328.88020515 -378.75447606 317.09520049 -378.89914103 305.30633953 C-378.98920717 297.42878369 -378.99189656 289.55430518 -378.92396353 281.67653599 C-378.88773706 277.1868031 -378.88908997 272.70595251 -378.99719638 268.21717744 C-379.58543002 242.3248 -379.58543002 242.3248 -373.61884892 235.12781949 C-367.9168649 230.26496827 -361.65178412 227.05519629 -354.76473933 224.19086803 C-351.22567222 222.66647048 -348.24240042 220.76879245 -345.06640625 218.59765625 C-344.14448486 218.00645996 -343.22256348 217.41526367 -342.27270508 216.80615234 C-340.93115356 215.94304443 -340.93115356 215.94304443 -339.5625 215.0625 C-337.47397553 213.72262944 -335.38543333 212.38278653 -333.296875 211.04296875 C-331.74129883 210.04402588 -331.74129883 210.04402588 -330.15429688 209.02490234 C-324.87668467 205.63693674 -319.59469381 202.25581644 -314.3125 198.875 C-313.27577148 198.21137451 -312.23904297 197.54774902 -311.17089844 196.86401367 C-301.69180556 190.79849611 -292.19865498 184.75521022 -282.70166016 178.71777344 C-278.13353943 175.81326436 -273.56684923 172.90650771 -269 170 C-267.16667337 168.8333228 -265.33334004 167.66665613 -263.5 166.5 C-262.5925 165.9225 -261.685 165.345 -260.75 164.75 C-252.5 159.5 -252.5 159.5 -249.75073242 157.75048828 C-247.91493088 156.58223612 -246.0791562 155.41394176 -244.2434082 154.24560547 C-239.69805624 151.35285245 -235.15226033 148.4608023 -230.60546875 145.5703125 C-220.89391531 139.39533632 -211.1913537 133.2066379 -201.5 127 C-190.91293014 120.21971821 -180.31135854 113.46257897 -169.70166016 106.71777344 C-165.13353944 103.81326437 -160.56683261 100.9065338 -156 98 C-150.53583711 94.5223656 -145.07142198 91.04513245 -139.60546875 87.5703125 C-129.89391531 81.39533632 -120.1913537 75.2066379 -110.5 69 C-99.91293014 62.21971821 -89.31135854 55.46257897 -78.70166016 48.71777344 C-74.13353943 45.81326436 -69.56684923 42.90650771 -65 40 C-63.16667337 38.8333228 -61.33334004 37.66665613 -59.5 36.5 C-58.5925 35.9225 -57.685 35.345 -56.75 34.75 C-54 33 -51.25 31.25 -48.5 29.5 C-47.59137207 28.9217749 -46.68274414 28.3435498 -45.74658203 27.74780273 C-43.92466877 26.58841811 -42.10272893 25.42907523 -40.28076172 24.26977539 C-35.52247562 21.24204632 -30.76473892 18.21345867 -26.0078125 15.18359375 C-25.02296875 14.55646484 -24.038125 13.92933594 -23.0234375 13.28320312 C-21.15086912 12.09076571 -19.27846187 10.8980752 -17.40625 9.70507812 C-15.72536912 8.63484959 -14.04345819 7.5662365 -12.36035156 6.49951172 C-10.79056916 5.50224201 -9.22476899 4.49867531 -7.66308594 3.48876953 C-6.94668945 3.02970215 -6.23029297 2.57063477 -5.4921875 2.09765625 C-4.55028564 1.48869507 -4.55028564 1.48869507 -3.58935547 0.86743164 C-2 0 -2 0 0 0 Z " fill="#00263D" transform="translate(1252,688)"/>
<path d="M0 0 C89.43 0 178.86 0 271 0 C271 185.79 271 371.58 271 563 C181.57 563 92.14 563 0 563 C0 377.21 0 191.42 0 0 Z " fill="#007AFF" transform="translate(1093,1250)"/>
<path d="M0 0 C3.77772222 1.51108889 6.62892679 2.88595281 10 5.01953125 C10.95841797 5.6228125 11.91683594 6.22609375 12.90429688 6.84765625 C13.92587891 7.49605469 14.94746094 8.14445312 16 8.8125 C18.17681863 10.18401397 20.35390669 11.5551004 22.53125 12.92578125 C23.62179687 13.61365723 24.71234375 14.3015332 25.8359375 15.01025391 C30.37540367 17.86493363 34.93635845 20.68419224 39.5 23.5 C52.05112413 31.25633947 64.5545874 39.08870829 77.06152344 46.91601562 C87.52785015 53.46541406 97.9976381 60.00850027 108.5 66.5 C119.00685639 72.99427777 129.48094727 79.54042507 139.95166016 86.09277344 C145.96742214 89.85659953 151.98559107 93.61657633 158.00366211 97.37670898 C162.98070943 100.48670629 167.95653117 103.59862759 172.9296875 106.71484375 C183.36391232 113.24985065 193.82027818 119.74595628 204.3125 126.1875 C213.31329027 131.71413863 222.27066223 137.30235716 231.19140625 142.95703125 C245.16348036 151.81018983 259.2167234 160.53295965 273.3125 169.1875 C281.53718192 174.23763724 289.73346312 179.32705555 297.88452148 184.49511719 C312.53567062 193.78403018 327.27007679 202.94080123 342.02636719 212.06152344 C349.07085028 216.41829837 356.1004203 220.79871412 363.125 225.1875 C364.16333984 225.83589844 365.20167969 226.48429687 366.27148438 227.15234375 C367.23634766 227.755625 368.20121094 228.35890625 369.1953125 228.98046875 C370.05141113 229.51567139 370.90750977 230.05087402 371.78955078 230.60229492 C373.54205504 231.71043352 375.2747758 232.84985054 377 234 C377.29736331 236.99743371 377.39624933 239.78855329 377.36914349 242.78879738 C377.37260502 243.71464547 377.37606655 244.64049357 377.37963298 245.59439766 C377.38764522 248.73200469 377.37405599 251.86916029 377.36076355 255.00674438 C377.36207038 257.2647374 377.36469454 259.52272998 377.36853105 261.78072011 C377.37527197 268.01291989 377.36319396 274.2449664 377.34819686 280.47714663 C377.33661609 286.49920282 377.33907493 292.52124195 377.34124239 298.54330476 C377.34518923 310.8667672 377.33514042 323.19018149 377.31719017 335.51362991 C377.29945564 347.7201931 377.28789568 359.92673625 377.28463173 372.13331223 C377.28442551 372.89150643 377.28421929 373.64970064 377.28400682 374.43087044 C377.28299186 378.28115707 377.2820877 382.13144372 377.2812262 385.98173039 C377.27492039 413.27266465 377.25469558 440.5635727 377.22631836 467.85449219 C377.19877738 494.37174337 377.17752051 520.88898739 377.16479492 547.40625 C377.16420305 548.6317283 377.16420305 548.6317283 377.16359923 549.88196373 C377.15964376 558.0862642 377.15581631 566.29056472 377.15208265 574.49486529 C377.14447345 591.20884734 377.1360097 607.92282893 377.12702942 624.6368103 C377.12661755 625.40533816 377.12620568 626.17386602 377.12578133 626.96568261 C377.11310886 650.52795699 377.09681338 674.09022693 377.07695007 697.65249634 C377.0763874 698.32162131 377.07582473 698.99074628 377.075245 699.68014777 C377.05239591 726.78676721 377.02571635 753.89338316 377 781 C306.05 781 235.1 781 162 781 C162 580.36 162 379.72 162 173 C108.54 173 55.08 173 0 173 C0 115.91 0 58.82 0 0 Z " fill="#00263D" transform="translate(1250,1032)"/>
</svg>
